# Blender v2.90.0 OBJ File: 'Cannabis.blend'
# www.blender.org
mtllib 5.mtl
o Plane.003_Plane.018
v 1.978946 0.099070 -0.001560
v 2.087185 0.099070 -0.123685
v 1.862973 0.047929 -0.104346
v 1.971212 0.047929 -0.226471
v 2.029934 0.111751 -0.065398
v 1.913961 0.060610 -0.168184
v 1.915849 0.094193 -0.057482
v 2.024087 0.094193 -0.179608
v 1.966836 0.106874 -0.121321
v 1.957502 0.050249 -0.122943
v 2.036035 0.050249 -0.029519
v 2.046220 0.012001 -0.197520
v 2.124753 0.012001 -0.104096
v 1.999164 0.059733 -0.078245
v 2.087882 0.021485 -0.152822
v 2.005770 0.046602 -0.163518
v 2.084303 0.046602 -0.070094
v 2.047432 0.056085 -0.118820
v 2.032335 0.135674 -0.154676
v 1.954825 0.135674 -0.042795
v 2.138580 0.093019 -0.081070
v 2.061069 0.093019 0.030810
v 1.996449 0.146250 -0.096748
v 2.102694 0.103596 -0.023142
v 2.090139 0.131606 -0.114629
v 2.012629 0.131606 -0.002749
v 2.054253 0.142182 -0.056701
v 2.040823 0.062092 -0.168429
v 1.943488 0.062092 -0.037447
v 2.165206 0.010951 -0.075998
v 2.067872 0.010951 0.054984
v 1.995514 0.074773 -0.100442
v 2.119898 0.023632 -0.008011
v 2.108496 0.057215 -0.118140
v 2.011162 0.057215 0.012842
v 2.063188 0.069896 -0.050153
v 2.011729 -0.002239 -0.093127
v 2.019279 -0.002239 -0.087641
v 2.016396 -0.002239 -0.078765
v 2.007063 -0.002239 -0.078765
v 2.004179 -0.002239 -0.087641
v 2.011729 0.154920 -0.086761
v 2.011729 0.147165 -0.087801
v 2.013226 0.154920 -0.085674
v 2.014215 0.147165 -0.085995
v 2.012654 0.154920 -0.083915
v 2.013266 0.147165 -0.083073
v 2.010804 0.154920 -0.083915
v 2.010193 0.147165 -0.083073
v 2.010233 0.154920 -0.085674
v 2.009244 0.147165 -0.085995
v 2.011355 0.050786 -0.090464
v 2.016372 0.050786 -0.086818
v 2.006337 0.050786 -0.086818
v 2.014456 0.050786 -0.080919
v 2.008253 0.050786 -0.080919
vt 0.500000 0.500000
vt 1.000000 0.500000
vt 1.000000 1.000000
vt 0.500000 1.000000
vt 0.000000 0.500000
vt 0.000000 1.000000
vt 0.000000 0.000000
vt 0.500000 0.000000
vt 1.000000 0.000000
vt 0.500000 0.500000
vt 1.000000 0.500000
vt 1.000000 1.000000
vt 0.500000 1.000000
vt 0.000000 0.500000
vt 0.000000 1.000000
vt 0.000000 0.000000
vt 0.500000 0.000000
vt 1.000000 0.000000
vt 0.500000 0.500000
vt 1.000000 0.500000
vt 1.000000 1.000000
vt 0.500000 1.000000
vt 0.000000 0.500000
vt 0.000000 1.000000
vt 0.000000 0.000000
vt 0.500000 0.000000
vt 1.000000 0.000000
vt 0.500000 0.500000
vt 1.000000 0.500000
vt 1.000000 1.000000
vt 0.500000 1.000000
vt 0.000000 0.500000
vt 0.000000 1.000000
vt 0.000000 0.000000
vt 0.500000 0.000000
vt 1.000000 0.000000
vt 0.490153 0.575613
vt 0.490153 0.598118
vt 0.471615 0.598118
vt 0.471615 0.575613
vt 0.527229 0.575613
vt 0.527229 0.598118
vt 0.508691 0.598118
vt 0.508691 0.575613
vt 0.564304 0.575613
vt 0.564304 0.598118
vt 0.545766 0.598118
vt 0.545766 0.575613
vt 0.541132 0.552181
vt 0.562289 0.536810
vt 0.554208 0.511939
vt 0.528057 0.511939
vt 0.519975 0.536810
vt 0.561180 0.599453
vt 0.548891 0.599453
vt 0.542643 0.599453
vt 0.530353 0.599453
vt 0.524105 0.599453
vt 0.511815 0.599453
vt 0.505567 0.599453
vt 0.493277 0.599453
vt 0.487029 0.599453
vt 0.474739 0.599453
vt 0.508814 0.534493
vt 0.494788 0.544684
vt 0.480762 0.534493
vt 0.486119 0.518005
vt 0.503456 0.518005
vt 0.545766 0.553108
vt 0.527229 0.553108
vt 0.564304 0.553108
vt 0.508691 0.553108
vt 0.490153 0.553108
vt 0.471615 0.553108
vn -0.3013 0.8263 -0.4758
vn -0.5085 0.8263 -0.2420
vn -0.1463 0.9861 0.0790
vn 0.0609 0.9861 -0.1547
vn 0.5147 0.8263 -0.2286
vn 0.3137 0.8263 -0.4677
vn -0.0568 0.9861 -0.1563
vn 0.1442 0.9861 0.0828
vn 0.3558 0.8263 0.4365
vn 0.5337 0.8263 0.1798
vn 0.1358 0.9861 -0.0959
vn -0.0421 0.9861 0.1609
vn 0.3411 0.8263 0.4481
vn 0.5274 0.8263 0.1974
vn 0.1389 0.9861 -0.0913
vn -0.0474 0.9861 0.1594
vn -0.9506 0.0374 -0.3082
vn -0.9479 0.0807 -0.3082
vn 0.0007 0.0788 -0.9969
vn -0.0021 0.0390 -0.9992
vn 0.5859 0.0400 0.8094
vn 0.5865 0.0777 0.8062
vn -0.5854 0.0800 0.8068
vn -0.5887 0.0381 0.8074
vn 0.9483 0.0770 -0.3079
vn 0.9500 0.0406 -0.3094
vn 0.0021 -0.5769 -0.8168
vn 0.7787 -0.5743 -0.2523
vn 0.4821 -0.5753 0.6607
vn -0.4781 -0.5784 0.6609
vn -0.7749 -0.5794 -0.2525
vn 0.0000 0.6453 -0.7639
vn 0.7265 0.6453 -0.2361
vn 0.4490 0.6453 0.6180
vn -0.4490 0.6453 0.6180
vn -0.7265 0.6453 -0.2361
usemtl Cannabis.006
s off
f 9/1/1 8/2/1 4/3/1 6/4/1
f 7/5/2 9/1/2 6/4/2 3/6/2
f 1/7/3 5/8/3 9/1/3 7/5/3
f 5/8/4 2/9/4 8/2/4 9/1/4
f 18/10/5 17/11/5 13/12/5 15/13/5
f 16/14/6 18/10/6 15/13/6 12/15/6
f 10/16/7 14/17/7 18/10/7 16/14/7
f 14/17/8 11/18/8 17/11/8 18/10/8
f 27/19/9 26/20/9 22/21/9 24/22/9
f 25/23/10 27/19/10 24/22/10 21/24/10
f 19/25/11 23/26/11 27/19/11 25/23/11
f 23/26/12 20/27/12 26/20/12 27/19/12
f 36/28/13 35/29/13 31/30/13 33/31/13
f 34/32/14 36/28/14 33/31/14 30/33/14
f 28/34/15 32/35/15 36/28/15 34/32/15
f 32/35/16 29/36/16 35/29/16 36/28/16
s 1
f 54/37/17 51/38/18 43/39/19 52/40/20
f 55/41/21 47/42/22 49/43/23 56/44/24
f 56/44/24 49/43/23 51/38/18 54/37/17
f 52/45/20 43/46/19 45/47/25 53/48/26
f 53/48/26 45/47/25 47/42/22 55/41/21
f 37/49/27 38/50/28 39/51/29 40/52/30 41/53/31
f 45/47/25 43/46/19 42/54/32 44/55/33
f 47/42/22 45/47/25 44/56/33 46/57/34
f 49/43/23 47/42/22 46/58/34 48/59/35
f 51/38/18 49/43/23 48/60/35 50/61/36
f 43/39/19 51/38/18 50/62/36 42/63/32
f 44/64/33 42/65/32 50/66/36 48/67/35 46/68/34
f 38/69/28 53/48/26 55/41/21 39/70/29
f 37/71/27 52/45/20 53/48/26 38/69/28
f 40/72/30 56/44/24 54/37/17 41/73/31
f 39/70/29 55/41/21 56/44/24 40/72/30
f 41/73/31 54/37/17 52/40/20 37/74/27
